Coordinates
version=1
nRows=34
nColumns=34
inDegrees=no

Units are S.I. units (second, meters, Newtons, ...)
If the header above contains a line with 'inDegrees', this indicates whether rotational values are in degrees (yes) or radians (no).

endheader
time	pelvis_tilt	pelvis_list	pelvis_rotation	pelvis_tx	pelvis_ty	pelvis_tz	hip_flexion_r	hip_adduction_r	hip_rotation_r	knee_angle_r	ankle_angle_r	subtalar_angle_r	mtp_angle_r	hip_flexion_l	hip_adduction_l	hip_rotation_l	knee_angle_l	ankle_angle_l	subtalar_angle_l	mtp_angle_l	lumbar_extension	lumbar_bending	lumbar_rotation	arm_flex_r	arm_add_r	arm_rot_r	elbow_flex_r	pro_sup_r	arm_flex_l	arm_add_l	arm_rot_l	elbow_flex_l	pro_sup_l
10.49	-0.281071	0.0366542	0.0721237	-0.530948	0.572025	-0.608733	1.77018	-0.329177	0.221667	1.65952	0.22604	-0.529488	-0.00241763	1.73269	-0.171956	0.111294	1.60684	0.109004	-0.610865	-0.00241763	-0.31421	-0.00437791	-0.153002	0.432582	-0.192558	-0.0330214	2.15015	1.96133	0.284253	-0.228969	-0.199419	2.25042	1.84803
10.5	-0.261652	0.0368506	0.0731703	-0.534891	0.569959	-0.609222	1.76091	-0.332784	0.224272	1.66322	0.215995	-0.532811	-0.00241763	1.72319	-0.170451	0.113519	1.61088	0.102919	-0.610865	-0.00241763	-0.318349	-0.0020115	-0.154024	0.422568	-0.193794	-0.0333215	2.14978	1.96894	0.274851	-0.226927	-0.200968	2.24992	1.85549
10.51	-0.238142	0.0356889	0.072429	-0.538986	0.568463	-0.609514	1.7456	-0.334098	0.224134	1.66581	0.208369	-0.535428	-0.00241763	1.70957	-0.171297	0.117233	1.61481	0.0992508	-0.610865	-0.00241763	-0.328172	0.00184332	-0.151821	0.413557	-0.196318	-0.0331918	2.1501	1.97623	0.267322	-0.223776	-0.201369	2.24898	1.8643
10.52	-0.216978	0.034091	0.0718183	-0.542999	0.566953	-0.60962	1.73236	-0.334284	0.224005	1.66804	0.195095	-0.543295	-0.00241763	1.6981	-0.172849	0.120306	1.61787	0.0896189	-0.610865	-0.00241763	-0.335378	0.0058686	-0.149312	0.40296	-0.19758	-0.0331127	2.1511	1.97329	0.25722	-0.220206	-0.201304	2.24858	1.86028
10.53	-0.192861	0.031038	0.0706227	-0.547119	0.566181	-0.609592	1.71397	-0.333149	0.22122	1.66881	0.181328	-0.550158	-0.00241763	1.68295	-0.175541	0.124155	1.61978	0.0808288	-0.610865	-0.00241763	-0.347607	0.0113909	-0.145435	0.393274	-0.197501	-0.0359816	2.15169	1.97723	0.249068	-0.216953	-0.199412	2.24652	1.85266
10.54	-0.16671	0.0283922	0.070692	-0.551363	0.566183	-0.609603	1.69225	-0.333019	0.217899	1.66823	0.166332	-0.555579	-0.00241763	1.66408	-0.177171	0.12609	1.61983	0.07208	-0.610865	-0.00241763	-0.364001	0.0163416	-0.143483	0.383701	-0.196536	-0.0386818	2.15116	1.98064	0.243161	-0.215019	-0.196246	2.24432	1.84407
10.55	-0.140943	0.0259943	0.0719274	-0.555625	0.566885	-0.609724	1.66932	-0.333833	0.213613	1.66575	0.151965	-0.55849	-0.00241763	1.64385	-0.177595	0.126442	1.6181	0.0645894	-0.610865	-0.00241763	-0.380949	0.0211415	-0.14317	0.373023	-0.195612	-0.0397536	2.14886	1.98174	0.235761	-0.211823	-0.196089	2.24223	1.84716
10.56	-0.119279	0.0226717	0.0741673	-0.559666	0.567822	-0.610027	1.64887	-0.335157	0.207872	1.6618	0.139227	-0.560216	-0.00241763	1.62693	-0.176757	0.127229	1.61536	0.0574887	-0.610865	-0.00241763	-0.392812	0.0273546	-0.143114	0.359578	-0.19486	-0.0408488	2.1458	1.97711	0.222766	-0.204906	-0.199279	2.23981	1.85589
10.57	-0.100012	0.0190192	0.077258	-0.563541	0.568866	-0.610514	1.62971	-0.337086	0.201719	1.65733	0.130061	-0.560546	-0.00241763	1.61192	-0.174738	0.128534	1.61216	0.0514258	-0.610865	-0.00241763	-0.401942	0.0342771	-0.143171	0.344189	-0.193308	-0.0439162	2.1431	1.97203	0.207373	-0.196433	-0.201787	2.23526	1.86812
10.58	-0.0798927	0.01709	0.0812655	-0.567425	0.570139	-0.611177	1.60962	-0.340434	0.197477	1.65314	0.125753	-0.556653	-0.00241763	1.5949	-0.171346	0.128141	1.60845	0.0472294	-0.610865	-0.00241763	-0.41288	0.0396109	-0.14447	0.328374	-0.190559	-0.0485787	2.14085	1.97351	0.193769	-0.189562	-0.199778	2.23126	1.86386
10.59	-0.0607333	0.0172191	0.0859932	-0.571185	0.571413	-0.611916	1.59123	-0.344843	0.195962	1.64945	0.12132	-0.551735	-0.00241763	1.57774	-0.166742	0.125449	1.60413	0.0404874	-0.610865	-0.00241763	-0.422791	0.0426316	-0.147806	0.311809	-0.187801	-0.0512001	2.1391	1.96687	0.180003	-0.183483	-0.197487	2.22754	1.85994
10.6	-0.0420723	0.017723	0.0890407	-0.574786	0.57277	-0.612322	1.57305	-0.346739	0.194552	1.64513	0.114975	-0.549068	-0.00241763	1.56035	-0.164194	0.122364	1.59947	0.0333174	-0.610865	-0.00241763	-0.432002	0.0440977	-0.14941	0.294481	-0.185968	-0.0530672	2.137	1.96477	0.165859	-0.176971	-0.19554	2.22302	1.86134
10.61	-0.0240869	0.0184023	0.0900298	-0.578272	0.574093	-0.612325	1.55539	-0.345745	0.192664	1.63995	0.104867	-0.549782	-0.00241763	1.54321	-0.164312	0.118943	1.59455	0.0252643	-0.610865	-0.00241763	-0.440391	0.0440753	-0.148563	0.276754	-0.184409	-0.0540841	2.13665	1.94294	0.151642	-0.171753	-0.190325	2.22023	1.84167
10.62	-0.00698711	0.0197338	0.0908282	-0.581646	0.575222	-0.612279	1.53904	-0.344649	0.191083	1.63469	0.0921728	-0.54881	-0.00241763	1.52681	-0.16462	0.11481	1.5895	0.0160945	-0.610865	-0.00241763	-0.447685	0.0430483	-0.146773	0.258883	-0.182593	-0.0590567	2.13535	1.94509	0.138209	-0.168429	-0.18352	2.21528	1.83333
10.63	0.0098256	0.0216829	0.0922585	-0.584869	0.576172	-0.612331	1.52343	-0.344482	0.1901	1.63003	0.0787711	-0.545848	-0.00241763	1.5106	-0.163837	0.110489	1.58462	0.00611662	-0.610865	-0.00241763	-0.454624	0.0413887	-0.145248	0.24115	-0.180591	-0.065009	2.13476	1.94596	0.125903	-0.165795	-0.176654	2.20997	1.82941
10.64	0.0275668	0.0238051	0.0931044	-0.587939	0.57713	-0.612278	1.50681	-0.34371	0.189249	1.62614	0.0677334	-0.546024	-0.00241763	1.49313	-0.163525	0.106538	1.5802	-0.0022352	-0.610865	-0.00241763	-0.46281	0.0390637	-0.143319	0.224237	-0.17836	-0.0699187	2.13447	1.94065	0.114733	-0.16304	-0.171072	2.2049	1.8266
10.65	0.046004	0.025959	0.0933276	-0.590826	0.578059	-0.612149	1.4893	-0.342487	0.188709	1.62329	0.0613912	-0.549953	-0.00241763	1.47487	-0.164042	0.102889	1.57664	-0.00781473	-0.610865	-0.00241763	-0.471846	0.036469	-0.141265	0.208697	-0.176442	-0.0739567	2.13438	1.92872	0.103546	-0.160862	-0.16546	2.20138	1.81408
10.66	0.0631226	0.0288995	0.0941966	-0.593458	0.57865	-0.612177	1.47368	-0.342558	0.18998	1.62174	0.0583753	-0.55307	-0.00241763	1.45818	-0.163489	0.0988707	1.57411	-0.0117794	-0.610865	-0.00241763	-0.479359	0.033296	-0.14038	0.19395	-0.175031	-0.0791084	2.13395	1.92505	0.0920217	-0.160035	-0.159774	2.19818	1.80621
10.67	0.0778823	0.0339878	0.0955147	-0.595837	0.578773	-0.612272	1.46208	-0.343814	0.194878	1.6214	0.0550024	-0.554452	-0.00241763	1.44363	-0.161261	0.0932343	1.57223	-0.0150654	-0.610865	-0.00241763	-0.484407	0.0276684	-0.140048	0.178573	-0.173509	-0.0846892	2.13465	1.91597	0.0818459	-0.160856	-0.15296	2.19494	1.8045
10.68	0.0921703	0.0402746	0.0963608	-0.598048	0.578653	-0.612261	1.45216	-0.345095	0.201821	1.62192	0.0501158	-0.556376	-0.00241763	1.42939	-0.158739	0.0870629	1.57102	-0.0175715	-0.610865	-0.00241763	-0.488531	0.0205163	-0.13859	0.16308	-0.171851	-0.0895708	2.13602	1.89686	0.0736856	-0.162286	-0.145135	2.19025	1.80973
10.69	0.108057	0.0441224	0.0976631	-0.60012	0.578464	-0.612506	1.43977	-0.347499	0.205771	1.62296	0.0458779	-0.558383	-0.00241763	1.415	-0.155915	0.0846543	1.57138	-0.0194202	-0.610865	-0.00241763	-0.492976	0.0170063	-0.137588	0.150647	-0.171483	-0.0925205	2.13533	1.88232	0.0645439	-0.162261	-0.13877	2.18594	1.81104
10.7	0.124129	0.0445233	0.100509	-0.601978	0.578126	-0.613341	1.42565	-0.352307	0.205356	1.62423	0.0431707	-0.559224	-0.00241763	1.40239	-0.151655	0.0871568	1.57341	-0.0209461	-0.610865	-0.00241763	-0.49692	0.0186539	-0.139178	0.141907	-0.173066	-0.0937691	2.13313	1.87453	0.0525013	-0.160203	-0.136069	2.18373	1.81038
10.71	0.138431	0.0439525	0.102664	-0.603653	0.577684	-0.614131	1.41282	-0.355891	0.204061	1.62516	0.0398902	-0.560464	-0.00241763	1.39184	-0.14848	0.0906294	1.57572	-0.022078	-0.610865	-0.00241763	-0.500329	0.0207887	-0.139668	0.133576	-0.174441	-0.0985522	2.1313	1.88744	0.0409312	-0.15803	-0.13486	2.18175	1.81946
10.72	0.152672	0.043193	0.10126	-0.605324	0.57748	-0.614128	1.39957	-0.353627	0.202953	1.62498	0.0351897	-0.56344	-0.00241763	1.38045	-0.150393	0.0929539	1.57731	-0.0227204	-0.610865	-0.00241763	-0.505576	0.020942	-0.134632	0.124685	-0.174047	-0.107352	2.13139	1.90479	0.0329678	-0.157137	-0.132018	2.17916	1.82889
10.73	0.168167	0.0420518	0.0982671	-0.606952	0.577649	-0.613816	1.38409	-0.348853	0.201171	1.62408	0.0313551	-0.566359	-0.00241763	1.36689	-0.154576	0.0948512	1.57823	-0.023379	-0.610865	-0.00241763	-0.512671	0.020924	-0.127608	0.117145	-0.173233	-0.115458	2.13114	1.91702	0.0264325	-0.156515	-0.128377	2.17651	1.83067
10.74	0.182656	0.0418112	0.0976137	-0.608307	0.577912	-0.614053	1.36952	-0.348218	0.200035	1.62376	0.0300743	-0.567122	-0.00241763	1.35353	-0.154893	0.096135	1.57865	-0.0249553	-0.610865	-0.00241763	-0.518231	0.0214977	-0.12397	0.110493	-0.173282	-0.120865	2.12967	1.92212	0.0185182	-0.155103	-0.12461	2.17421	1.8252
10.75	0.195067	0.0424183	0.0989574	-0.609427	0.578071	-0.614695	1.35743	-0.35096	0.19999	1.62416	0.0300967	-0.566315	-0.00241763	1.34189	-0.152041	0.0967321	1.57886	-0.0276364	-0.610865	-0.00241763	-0.521569	0.0221253	-0.122736	0.103681	-0.173657	-0.125077	2.12869	1.91757	0.00989699	-0.153285	-0.120946	2.17215	1.81893
10.76	0.206954	0.0424932	0.0998187	-0.610525	0.578249	-0.61522	1.34566	-0.352783	0.199496	1.62435	0.0299845	-0.565119	-0.00241763	1.33083	-0.150137	0.0973468	1.57908	-0.0305139	-0.610865	-0.00241763	-0.524904	0.0228164	-0.120745	0.0974108	-0.174295	-0.129161	2.12793	1.91531	0.00232431	-0.151483	-0.118752	2.16993	1.8194
10.77	0.218175	0.0420326	0.100026	-0.611555	0.578565	-0.615632	1.33399	-0.353499	0.198246	1.62399	0.0299452	-0.563342	-0.00241763	1.3201	-0.149117	0.0981167	1.57896	-0.0330758	-0.610865	-0.00241763	-0.527624	0.0234281	-0.117934	0.0916896	-0.175679	-0.132621	2.12602	1.92077	-0.00422012	-0.149248	-0.118054	2.16627	1.82985
10.78	0.227512	0.0416517	0.100477	-0.612391	0.579003	-0.616075	1.3238	-0.354446	0.197081	1.62336	0.0305105	-0.560717	-0.00241763	1.31067	-0.147359	0.0989179	1.57815	-0.0359549	-0.610865	-0.00241763	-0.527965	0.0238004	-0.115659	0.0861875	-0.177071	-0.134836	2.12313	1.92262	-0.0108809	-0.146465	-0.116353	2.16267	1.8313
10.79	0.235662	0.0412892	0.101158	-0.613139	0.5795	-0.616501	1.31461	-0.355378	0.196078	1.62255	0.0309798	-0.558134	-0.00241763	1.30224	-0.145233	0.0998968	1.57693	-0.0392495	-0.610865	-0.00241763	-0.527294	0.024383	-0.114457	0.0818721	-0.177824	-0.136179	2.11988	1.9252	-0.0178041	-0.143468	-0.114857	2.1597	1.82859
10.8	0.243388	0.0405559	0.101696	-0.6139	0.579953	-0.616861	1.30583	-0.355771	0.194657	1.62161	0.0308826	-0.556028	-0.00241763	1.29457	-0.143655	0.101378	1.57595	-0.0418669	-0.610865	-0.00241763	-0.526906	0.0255122	-0.113864	0.0791495	-0.17845	-0.136326	2.11731	1.92713	-0.024401	-0.140485	-0.115119	2.158	1.82701
10.81	0.24988	0.0391402	0.101851	-0.614583	0.580282	-0.617153	1.29825	-0.355377	0.192456	1.62062	0.0305773	-0.554364	-0.00241763	1.28858	-0.14295	0.103676	1.57549	-0.0432521	-0.610865	-0.00241763	-0.525438	0.0269469	-0.113032	0.0769748	-0.178871	-0.135529	2.11562	1.92224	-0.0306963	-0.137737	-0.115413	2.15799	1.81934
10.82	0.255077	0.0374336	0.101617	-0.615138	0.580543	-0.61738	1.29196	-0.354426	0.189953	1.6196	0.0303303	-0.553155	-0.00241763	1.28392	-0.14278	0.106288	1.57526	-0.0440934	-0.610865	-0.00241763	-0.522799	0.0282675	-0.112157	0.0747881	-0.178395	-0.135263	2.11374	1.92462	-0.0370316	-0.13547	-0.114938	2.15875	1.80902
